<svg xmlns="http://www.w3.org/2000/svg" style="display: none">


    <symbol id="edit" viewBox="0 0 1696.162 1696.143">
        <path d="M1648.016,305.367L1390.795,48.149C1359.747,17.098,1318.466,0,1274.555,0c-43.907,0-85.188,17.098-116.236,48.148   L81.585,1124.866c-10.22,10.22-16.808,23.511-18.75,37.833L0.601,1621.186c-2.774,20.448,4.161,41.015,18.753,55.605   c12.473,12.473,29.313,19.352,46.714,19.352c2.952,0,5.923-0.197,8.891-0.601l458.488-62.231   c14.324-1.945,27.615-8.529,37.835-18.752L1648.016,537.844c31.049-31.048,48.146-72.33,48.146-116.237   C1696.162,377.696,1679.064,336.415,1648.016,305.367z M493.598,1505.366l-350.381,47.558l47.56-350.376L953.78,439.557   l302.818,302.819L493.598,1505.366z M1554.575,444.404l-204.536,204.533l-302.821-302.818l204.535-204.532   c8.22-8.218,17.814-9.446,22.802-9.446c4.988,0,14.582,1.228,22.803,9.446l257.221,257.218c8.217,8.217,9.443,17.812,9.443,22.799   S1562.795,436.186,1554.575,444.404z"/>
    </symbol>

    <symbol id="update" viewBox="0 0 128 128">
        <path d="M18.233,81.666l-0.016,0.003c0.006,0.012,0.01,0.022,0.016,0.036c0.008,0.101,0.026,0.195,0.04,0.293   c0.002,0.017,0,0.029,0.002,0.045l3.929,25.514c0.476,3.098,3.374,5.221,6.47,4.743c3.098-0.476,5.222-3.372,4.746-6.471   l-0.611-3.965c0.712,0.587,1.43,1.169,2.175,1.714c10.106,7.42,23.111,10.987,36.486,8.926c13.372-2.056,24.702-9.37,32.109-19.487   c3.662-4.988,6.353-10.695,7.922-16.793l-15.479-4.262c-1.044,4.191-2.882,8.109-5.405,11.552   c-5.012,6.824-12.566,11.713-21.593,13.105c-9.027,1.388-17.705-1.002-24.536-6.004c-0.841-0.616-1.645-1.282-2.424-1.976   l4.488,0.435c2.872,0.276,5.445-2.025,5.748-5.144c0.3-3.12-1.783-5.873-4.655-6.15l-23.659-2.291   c-2.568-0.248-4.884,1.572-5.564,4.188c-0.05,0.185-0.076,0.374-0.109,0.565c-0.021,0.132-0.061,0.255-0.074,0.39   c-0.004,0.041,0.002,0.077-0.001,0.114c-0.013,0.174-0.004,0.351-0.002,0.528C18.235,81.406,18.224,81.539,18.233,81.666z" /><path
            d="M109.767,46.334l0.015-0.002c-0.006-0.013-0.01-0.024-0.016-0.037c-0.008-0.1-0.027-0.195-0.04-0.293   c-0.002-0.015,0-0.029-0.002-0.044l-3.928-25.513c-0.477-3.097-3.373-5.221-6.472-4.744c-3.097,0.477-5.221,3.373-4.744,6.47   l0.612,3.967c-0.715-0.587-1.433-1.169-2.177-1.715c-10.106-7.419-23.112-10.989-36.484-8.926   c-13.374,2.055-24.703,9.371-32.109,19.487c-3.664,4.989-6.355,10.696-7.922,16.794l15.479,4.26   c1.042-4.19,2.882-8.108,5.403-11.551c5.012-6.824,12.569-11.712,21.595-13.105c9.027-1.386,17.703,1.002,24.536,6.002   c0.841,0.618,1.645,1.284,2.423,1.976l-4.487-0.434c-2.872-0.278-5.445,2.026-5.747,5.144c-0.303,3.119,1.782,5.873,4.653,6.15   l23.659,2.291c2.568,0.248,4.884-1.572,5.564-4.188c0.05-0.184,0.076-0.374,0.107-0.565c0.022-0.132,0.063-0.255,0.075-0.391   c0.006-0.038-0.003-0.075,0-0.112c0.014-0.175,0.007-0.353,0.003-0.53C109.764,46.595,109.774,46.462,109.767,46.334z"
            />
    </symbol>

    <symbol id="remove" viewBox="0 0 32 32">
        <path d="M17.459,16.014l8.239-8.194c0.395-0.391,0.395-1.024,0-1.414c-0.394-0.391-1.034-0.391-1.428,0  l-8.232,8.187L7.73,6.284c-0.394-0.395-1.034-0.395-1.428,0c-0.394,0.396-0.394,1.037,0,1.432l8.302,8.303l-8.332,8.286  c-0.394,0.391-0.394,1.024,0,1.414c0.394,0.391,1.034,0.391,1.428,0l8.325-8.279l8.275,8.276c0.394,0.395,1.034,0.395,1.428,0  c0.394-0.396,0.394-1.037,0-1.432L17.459,16.014z"/>
    </symbol>
    <symbol id="search" viewBox="0 0 512 512">
        <path d="M344.5,298c15-23.6,23.8-51.6,23.8-81.7c0-84.1-68.1-152.3-152.1-152.3C132.1,64,64,132.2,64,216.3  c0,84.1,68.1,152.3,152.1,152.3c30.5,0,58.9-9,82.7-24.4l6.9-4.8L414.3,448l33.7-34.3L339.5,305.1L344.5,298z M301.4,131.2  c22.7,22.7,35.2,52.9,35.2,85c0,32.1-12.5,62.3-35.2,85c-22.7,22.7-52.9,35.2-85,35.2c-32.1,0-62.3-12.5-85-35.2  c-22.7-22.7-35.2-52.9-35.2-85c0-32.1,12.5-62.3,35.2-85c22.7-22.7,52.9-35.2,85-35.2C248.5,96,278.7,108.5,301.4,131.2z"/>

    </symbol>

</svg>